<svg width="283.28749999999997px" height="121.39999999999999px" xmlns="http://www.w3.org/2000/svg" viewBox="108.35625000000002 14.300000000000004 283.28749999999997 121.39999999999999" style="background: rgba(0, 0, 0, 0);" preserveAspectRatio="xMidYMid"><defs><filter id="editing-offset"><feFlood flood-color="#f00" flood-opacity="0.5" result="c1"></feFlood><feFlood flood-color="#0f0" flood-opacity="0.5" result="c2"></feFlood><feFlood flood-color="#00f" flood-opacity="0.5" result="c3"></feFlood><feComposite operator="in" in="c1" in2="SourceAlpha" result="text-c1"></feComposite><feComposite operator="in" in="c2" in2="SourceAlpha" result="text-c2"></feComposite><feComposite operator="in" in="c3" in2="SourceAlpha" result="text-c3"></feComposite><feOffset in="text-c1" dx="-10" dy="0" result="text1"></feOffset><feOffset in="text-c2" dx="10" dy="0" result="text2"></feOffset><feOffset in="text-c3" dx="0" dy="0" result="text3"></feOffset><feMerge><feMergeNode in="text1"></feMergeNode><feMergeNode in="text2"></feMergeNode><feMergeNode in="text3"></feMergeNode></feMerge></filter></defs><g filter="url(#editing-offset)"><g transform="translate(153.4900152683258, 96.76000022888184)"><path d="M28.42-9.86L28.42-9.86L28.42-9.86Q29.63-8.32 29.63-5.82L29.63-5.82L29.63-5.82Q29.63-2.37 27.07-0.54L27.07-0.54L27.07-0.54Q24.51 1.28 20.48 1.28L20.48 1.28L20.48 1.28Q18.18 1.28 14.66 0.77L14.66 0.77L14.66 0.77Q7.74-0.32 5.63-0.32L5.63-0.32L5.63-0.32Q3.52-0.32 2.69-0.22L2.69-0.22L2.69-0.22Q1.86-0.13 0.51 0L0.51 0L8.38-42.24L35.97-42.24L35.97-42.24Q35.97-38.34 34.08-36.29L34.08-36.29L34.08-36.29Q32.19-34.24 28.48-34.24L28.48-34.24L28.48-34.24Q24.77-34.24 20.99-35.97L20.99-35.97L19.01-24.77L30.40-24.77L30.40-24.77Q30.40-21.38 28.74-19.49L28.74-19.49L28.74-19.49Q27.07-17.60 24.29-17.60L24.29-17.60L24.29-17.60Q21.50-17.60 19.78-18.24L19.78-18.24L19.78-18.24Q18.05-18.88 17.86-19.07L17.86-19.07L15.55-6.98L15.55-6.98Q17.09-6.78 19.97-6.78L19.97-6.78L19.97-6.78Q24.90-6.78 28.42-9.86ZM54.66-22.46L54.66-22.46L54.66-22.46Q55.55-24.83 55.55-26.88L55.55-26.88L55.55-26.88Q55.55-30.66 52.48-30.66L52.48-30.66L52.48-30.66Q50.88-30.66 49.57-29.22L49.57-29.22L49.57-29.22Q48.26-27.78 48.26-25.98L48.26-25.98L48.26-25.98Q48.26-24.70 49.28-23.68L49.28-23.68L49.28-23.68Q50.75-22.27 54.53-19.97L54.53-19.97L54.53-19.97Q58.30-17.66 59.74-15.78L59.74-15.78L59.74-15.78Q61.18-13.89 61.18-11.30L61.18-11.30L61.18-11.30Q61.18-8.70 59.94-6.34L59.94-6.34L59.94-6.34Q58.69-3.97 56.45-2.30L56.45-2.30L56.45-2.30Q51.65 1.28 43.97 1.28L43.97 1.28L43.97 1.28Q39.81 1.28 36.61-0.90L36.61-0.90L36.61-0.90Q33.41-3.01 33.41-5.50L33.41-5.50L33.41-5.50Q33.41-8 35.23-9.47L35.23-9.47L35.23-9.47Q37.06-10.94 39.74-10.94L39.74-10.94L39.74-10.94Q42.43-10.94 44.10-9.92L44.10-9.92L44.10-9.92Q43.26-7.81 43.26-6.40L43.26-6.40L43.26-6.40Q43.26-2.18 46.85-2.18L46.85-2.18L46.85-2.18Q48.38-2.18 49.41-3.14L49.41-3.14L49.41-3.14Q50.43-4.10 50.43-5.76L50.43-5.76L50.43-5.76Q50.43-9.02 44.93-12.48L44.93-12.48L44.93-12.48Q40.45-15.42 39.42-16.58L39.42-16.58L39.42-16.58Q37.70-18.62 37.70-21.18L37.70-21.18L37.70-21.18Q37.70-23.74 38.91-26.18L38.91-26.18L38.91-26.18Q40.13-28.61 42.37-30.34L42.37-30.34L42.37-30.34Q47.04-33.92 55.17-33.92L55.17-33.92L55.17-33.92Q59.33-33.92 61.79-32.26L61.79-32.26L61.79-32.26Q64.26-30.59 64.26-27.78L64.26-27.78L64.26-27.78Q64.26-24.96 62.56-23.36L62.56-23.36L62.56-23.36Q60.86-21.76 57.79-21.76L57.79-21.76L57.79-21.76Q55.68-21.76 54.66-22.46ZM67.65-6.40L67.65-6.40L67.65-6.40Q67.65-8.13 68.54-12.48L68.54-12.48L71.94-29.76L68.16-29.76L68.42-31.68L68.42-31.68Q76.10-33.98 83.52-39.62L83.52-39.62L86.59-39.62L85.06-32.64L90.05-32.64L89.47-29.76L84.54-29.76L81.28-12.48L81.28-12.48Q80.45-8.51 80.45-7.17L80.45-7.17L80.45-7.17Q80.45-4.10 83.14-3.46L83.14-3.46L83.14-3.46Q82.50-1.28 80.19 0L80.19 0L80.19 0Q77.89 1.28 74.62 1.28L74.62 1.28L74.62 1.28Q71.36 1.28 69.50-0.77L69.50-0.77L69.50-0.77Q67.65-2.82 67.65-6.40ZM103.42 1.28L103.42 1.28L103.42 1.28Q89.34 1.28 89.34-11.97L89.34-11.97L89.34-11.97Q89.34-21.38 94.53-27.46L94.53-27.46L94.53-27.46Q100.03-33.92 109.57-33.92L109.57-33.92L109.57-33.92Q116.48-33.92 120-30.72L120-30.72L120-30.72Q123.52-27.52 123.52-20.80L123.52-20.80L123.52-20.80Q123.52-10.56 118.02-4.61L118.02-4.61L118.02-4.61Q112.64 1.28 103.42 1.28ZM105.09-26.56L105.09-26.56L105.09-26.56Q104.32-24.83 103.71-22.24L103.71-22.24L103.71-22.24Q103.10-19.65 102.34-15.55L102.34-15.55L102.34-15.55Q101.57-11.46 101.57-6.40L101.57-6.40L101.57-6.40Q101.57-4.74 102.11-3.65L102.11-3.65L102.11-3.65Q102.66-2.56 104.13-2.56L104.13-2.56L104.13-2.56Q105.60-2.56 106.53-3.26L106.53-3.26L106.53-3.26Q107.46-3.97 108.16-5.63L108.16-5.63L108.16-5.63Q109.44-8.58 110.46-14.05L110.46-14.05L110.46-14.05Q111.49-19.52 111.58-21.89L111.58-21.89L111.58-21.89Q111.68-24.26 111.68-26.02L111.68-26.02L111.68-26.02Q111.68-27.78 111.17-28.93L111.17-28.93L111.17-28.93Q110.66-30.08 109.22-30.08L109.22-30.08L109.22-30.08Q107.78-30.08 106.82-29.18L106.82-29.18L106.82-29.18Q105.86-28.29 105.09-26.56ZM147.33-17.98L147.33-17.98L147.33-17.98Q149.63-22.08 149.63-26.24L149.63-26.24L149.63-26.24Q149.63-28.99 147.65-28.99L147.65-28.99L147.65-28.99Q146.11-28.99 144.51-26.37L144.51-26.37L144.51-26.37Q142.85-23.74 142.34-20.35L142.34-20.35L139.01 0L125.76 1.28L132.29-32.64L142.85-33.92L141.70-27.46L141.70-27.46Q144.83-33.92 151.87-33.92L151.87-33.92L151.87-33.92Q155.58-33.92 157.60-32L157.60-32L157.60-32Q159.62-30.08 159.62-26.14L159.62-26.14L159.62-26.14Q159.62-22.21 157.02-19.71L157.02-19.71L157.02-19.71Q154.43-17.22 150.02-17.22L150.02-17.22L150.02-17.22Q148.10-17.22 147.33-17.98ZM186.56-10.82L186.56-10.82L186.56-10.82Q188.16-9.73 188.16-7.33L188.16-7.33L188.16-7.33Q188.16-4.93 186.94-3.39L186.94-3.39L186.94-3.39Q185.73-1.86 183.74-0.83L183.74-0.83L183.74-0.83Q179.65 1.28 175.23 1.28L175.23 1.28L175.23 1.28Q170.82 1.28 168.22 0.32L168.22 0.32L168.22 0.32Q165.63-0.64 163.90-2.43L163.90-2.43L163.90-2.43Q160.51-5.82 160.51-12.03L160.51-12.03L160.51-12.03Q160.51-21.70 165.76-27.58L165.76-27.58L165.76-27.58Q171.39-33.92 181.18-33.92L181.18-33.92L181.18-33.92Q187.26-33.92 190.27-31.36L190.27-31.36L190.27-31.36Q192.51-29.44 192.51-26.30L192.51-26.30L192.51-26.30Q192.51-15.04 173.06-15.04L173.06-15.04L173.06-15.04Q172.80-13.38 172.80-11.97L172.80-11.97L172.80-11.97Q172.80-9.02 174.11-7.90L174.11-7.90L174.11-7.90Q175.42-6.78 177.86-6.78L177.86-6.78L177.86-6.78Q180.29-6.78 182.88-7.90L182.88-7.90L182.88-7.90Q185.47-9.02 186.56-10.82ZM173.50-17.79L173.50-17.79L173.50-17.79Q178.05-17.79 180.67-20.61L180.67-20.61L180.67-20.61Q183.30-23.30 183.30-27.58L183.30-27.58L183.30-27.58Q183.30-29.06 182.75-29.86L182.75-29.86L182.75-29.86Q182.21-30.66 181.12-30.66L181.12-30.66L181.12-30.66Q180.03-30.66 179.10-30.24L179.10-30.24L179.10-30.24Q178.18-29.82 177.22-28.42L177.22-28.42L177.22-28.42Q174.85-25.22 173.50-17.79Z"></path></g></g><style>text {
  font-size: 64px;
  font-family: Arial Black;
  dominant-baseline: central;
  text-anchor: middle;
}</style></svg>